Coordinates
version=1
nRows=20
nColumns=34
inDegrees=yes

Units are S.I. units (second, meters, Newtons, ...)
If the header above contains a line with 'inDegrees', this indicates whether rotational values are in degrees (yes) or radians (no).

endheader
time	pelvis_tilt	pelvis_list	pelvis_rotation	pelvis_tx	pelvis_ty	pelvis_tz	hip_flexion_r	hip_adduction_r	hip_rotation_r	knee_angle_r	ankle_angle_r	subtalar_angle_r	mtp_angle_r	hip_flexion_l	hip_adduction_l	hip_rotation_l	knee_angle_l	ankle_angle_l	subtalar_angle_l	mtp_angle_l	lumbar_extension	lumbar_bending	lumbar_rotation	arm_flex_r	arm_add_r	arm_rot_r	elbow_flex_r	pro_sup_r	arm_flex_l	arm_add_l	arm_rot_l	elbow_flex_l	pro_sup_l
      0.00000000	     -5.42458742	     -0.37078361	     -5.00482847	      1.67037325	      0.86677803	      0.01345825	      8.25231399	     -2.73616953	     -4.43036908	      7.29112792	      1.90552986	    -16.44411871	      0.00000000	      7.42849280	     -7.11587799	     -2.13199053	      7.68418284	      6.87241217	     -3.82449115	      0.00000000	     -9.34385076	      0.93178681	     -2.40201853	     18.04284294	      1.82634446	     40.26452046	     90.64799012	    102.10670999	      5.62918861	     -1.60485250	     19.89667321	     98.22340017	    106.26026360
      0.01666670	     -7.21846869	     -0.48307046	     -4.68544552	      1.67175795	      0.86636493	      0.01202852	     10.27741366	     -2.33636150	     -4.17457175	      7.76668469	      5.52064336	    -14.47413648	      0.00000000	     10.09945678	     -6.92080734	     -1.15512468	      8.07735778	      7.57073587	     -2.56462882	      0.00000000	     -6.41130787	      1.49397613	     -1.44908187	     15.80971416	      1.84451256	     37.39634800	     90.16811602	    100.10354955	      5.58926206	     -1.39330521	     20.77638043	     95.91223399	    102.59981258
      0.03333330	     -7.37467496	     -0.12739607	     -4.71819432	      1.67209433	      0.86657661	      0.01217308	     10.02231046	     -2.66686207	     -4.47621554	      6.85031038	      5.34765971	    -14.51529272	      0.00000000	     10.16757653	     -6.82454472	     -1.26023534	      7.66291547	      7.10840400	     -2.50017724	      0.00000000	     -6.27367287	      1.06740815	     -1.46575803	     14.97399589	      1.93269002	     37.65789873	     89.92120335	    100.03996906	      5.73342007	     -1.68780992	     20.72949266	     95.51739128	    102.33388252
      0.05000000	     -6.74537252	      0.01054319	     -4.60466126	      1.67197674	      0.86833811	      0.01196363	      8.95525866	     -2.89530808	     -4.70009260	      6.21367870	      5.40961700	    -14.32239565	      0.00000000	      9.08054026	     -6.66515598	     -0.76247607	      6.89943807	      6.48458430	     -3.41308789	      0.00000000	     -6.87064351	      0.88848091	     -1.13887499	     14.30718776	      1.98660438	     37.60854565	     88.97976097	     99.73973230	      6.85313143	     -1.99816905	     21.49065715	     93.70621342	    101.49494041
      0.06666670	     -6.32312533	      0.03871393	     -4.55491620	      1.67183643	      0.86913851	      0.01151212	      8.23495814	     -2.91732459	     -4.65675521	      5.76654539	      5.60352087	    -14.22513572	      0.00000000	      8.32442524	     -6.55356499	     -0.09570777	      6.28928788	      6.21406488	     -4.50110196	      0.00000000	     -7.44127060	      0.77102014	     -0.30422863	     13.18204837	      1.66966271	     36.92266601	     89.79531945	     98.91037921	      8.02868406	     -2.11894243	     23.45618626	     92.69127340	     99.91394565
      0.08333330	     -6.31812728	      0.10932072	     -4.51239516	      1.67127868	      0.86880041	      0.01102166	      8.21532779	     -2.98455333	     -4.63741082	      5.65279850	      5.63865774	    -14.25811161	      0.00000000	      8.31107954	     -6.44079209	     -0.15054709	      6.14449940	      6.20027829	     -4.53580419	      0.00000000	     -7.53527606	      0.84760904	     -0.53722106	     12.93549714	      1.59483211	     36.94329946	     89.79207383	     98.89366582	      8.05666674	     -2.07019294	     23.53438747	     92.63440151	     99.89308340
      0.10000000	     -5.63101190	      0.11535156	     -4.22176782	      1.67106711	      0.87004711	      0.01037972	      7.08818929	     -3.04253590	     -4.42328745	      4.97036135	      5.31964422	    -14.93179401	      0.00000000	      7.31633127	     -6.24402402	      0.63172171	      5.51273427	      5.52017724	     -5.41332431	      0.00000000	     -8.28467722	      0.67287747	     -0.32125149	     12.37347094	      1.17812704	     36.29368551	     90.96887232	     98.06166943	      8.75738445	     -1.95803829	     24.82512663	     91.89904974	     99.16041263
      0.11666670	     -5.56718066	      0.18192532	     -4.07534882	      1.67074382	      0.87086242	      0.00965579	      6.94265571	     -3.15764112	     -4.43607120	      4.78092768	      5.28434466	    -15.04152496	      0.00000000	      7.23741296	     -6.07732748	      0.72270754	      5.41596172	      5.28595416	     -5.35785103	      0.00000000	     -8.25718059	      0.56716399	     -0.66439522	     12.31654303	      0.78432386	     36.14002879	     91.18145895	     97.96297851	      8.54423794	     -1.79285681	     25.03155342	     91.68518825	     99.09111861
      0.13333330	     -5.19079590	      0.16384389	     -3.90358574	      1.67057352	      0.87109201	      0.00863523	      6.36342513	     -3.19715665	     -4.27419208	      4.42822769	      4.72197498	    -15.73885352	      0.00000000	      6.75409826	     -5.94526093	      1.21010780	      5.21785450	      4.78785268	     -6.05199683	      0.00000000	     -8.79488331	      0.58812538	     -0.46921776	     11.94969611	      0.01834870	     35.96800975	     92.37751357	     97.29737923	      8.84177838	     -1.47836057	     25.31915374	     90.78168751	     98.59177039
      0.15000000	     -5.13249178	      0.24297645	     -3.81606955	      1.67074108	      0.87033308	      0.00816037	      6.24484901	     -3.31952308	     -4.27918669	      4.34353449	      4.75227220	    -15.92753362	      0.00000000	      6.59201578	     -5.79272907	      1.36311039	      5.07976388	      4.62295486	     -6.02799474	      0.00000000	     -8.71479963	      0.42888515	     -0.64069589	     11.66522818	     -0.47608305	     35.88518181	     92.55234523	     97.18010523	      8.56948830	     -1.54656850	     25.41148174	     90.63850890	     98.50326212
      0.16666670	     -5.09642537	      0.27807846	     -3.83333924	      1.67038221	      0.86952892	      0.00793921	      6.24771629	     -3.37154123	     -4.26467351	      4.35662151	      4.72557715	    -15.99408769	      0.00000000	      6.51808531	     -5.70105175	      1.41699644	      5.04861667	      4.55943516	     -6.03269869	      0.00000000	     -8.81914270	      0.47479071	     -0.77406071	     11.45856449	     -0.84110579	     35.83408471	     92.60941873	     97.14584792	      8.34386278	     -1.63683768	     25.42875207	     90.52578709	     98.47650065
      0.18333330	     -5.01224049	      0.25909121	     -3.70439186	      1.67013366	      0.86956510	      0.00745531	      6.14659684	     -3.34887394	     -4.28673299	      4.41498791	      4.70693289	    -16.16632686	      0.00000000	      6.33904580	     -5.67393223	      1.53534485	      4.84737502	      4.46876455	     -6.05037068	      0.00000000	     -8.77134006	      0.37841315	     -0.88591758	     11.24785290	     -1.38212464	     35.73587734	     92.84959167	     97.09385045	      7.85323890	     -1.81193479	     25.42351384	     90.33576524	     98.43158772
      0.20000000	     -4.87409866	      0.21799229	     -3.73220102	      1.67008018	      0.86970966	      0.00626035	      5.84568212	     -3.29255003	     -3.91740475	      4.06709400	      3.93333646	    -17.45753104	      0.00000000	      5.88475534	     -5.62160020	      2.16659047	      4.25604028	      3.74753696	     -7.01978083	      0.00000000	     -9.07430804	      0.40799873	     -0.53630032	     10.51895947	     -2.31620992	     35.35911128	     95.46014712	     96.37607531	      7.54380008	     -1.26481334	     24.79663568	     89.96163143	     97.72729133
      0.21666670	     -4.88113186	      0.22391773	     -3.74945359	      1.67009380	      0.86931374	      0.00517556	      5.88693136	     -3.32180204	     -3.88865908	      4.03694568	      3.94895639	    -17.51656423	      0.00000000	      5.79483059	     -5.56813458	      2.22202217	      4.02080543	      3.76060573	     -7.02002103	      0.00000000	     -9.12422319	      0.49415505	     -0.69434305	     10.32827915	     -2.67241107	     35.24891869	     95.44697778	     96.33526725	      7.29514308	     -1.33323332	     24.86672382	     89.89614086	     97.69473801
      0.23333330	     -4.86009939	      0.18362588	     -3.75384421	      1.67088136	      0.86932520	      0.00444957	      5.76481614	     -3.29729650	     -3.88579045	      3.85287421	      3.93506895	    -17.69806792	      0.00000000	      5.44595194	     -5.57294858	      2.44037961	      3.42826021	      3.64435651	     -6.98396103	      0.00000000	     -8.78852779	      0.52632150	     -0.81333793	      9.96257657	     -3.21088477	     35.03049880	     95.72902869	     96.21634779	      6.70589435	     -1.40575766	     24.90686066	     89.82095343	     97.58102385
      0.25000000	     -4.75001653	      0.11644574	     -3.74178078	      1.67125430	      0.86989594	      0.00364581	      5.51913857	     -3.25982966	     -3.55188881	      3.55688346	      3.33706655	    -18.38644581	      0.00000000	      5.06253245	     -5.58806005	      2.72965638	      2.89766761	      3.09963138	     -7.60956024	      0.00000000	     -9.00960015	      0.53814712	     -0.41650776	      8.98046075	     -3.73019269	     34.06587497	     97.20160983	     95.28735666	      6.32617118	     -0.95907781	     24.43284481	     89.58748955	     96.58153637
      0.26666670	     -4.73627497	      0.07701686	     -3.75056885	      1.67160829	      0.87062348	      0.00272333	      5.50250904	     -3.27682376	     -3.46997097	      3.51167453	      3.31773396	    -18.37694248	      0.00000000	      4.90588575	     -5.58152258	      2.83309752	      2.65314959	      3.11957481	     -7.57212435	      0.00000000	     -9.02046338	      0.58875265	     -0.56687130	      8.57818812	     -4.10926111	     34.03752670	     97.12414804	     95.22936031	      5.91771313	     -1.08419550	     24.52715713	     89.42973771	     96.51840399
      0.28333330	     -4.72641500	      0.02810405	     -3.80243467	      1.67283980	      0.87143232	      0.00203583	      5.28929080	     -3.26219333	     -3.46369509	      3.18915559	      3.22549106	    -18.40135998	      0.00000000	      4.53723439	     -5.58486342	      2.97345782	      2.13440419	      3.02521468	     -7.51084148	      0.00000000	     -8.67632745	      0.62979678	     -0.61708739	      8.03591616	     -4.48311672	     33.98212525	     97.20905972	     95.07171566	      5.37450775	     -1.16371880	     24.47150294	     89.07180052	     96.32321203
      0.30000000	     -4.70196378	      0.02391358	     -3.92263597	      1.67358923	      0.87141026	      0.00133319	      5.29084535	     -3.32858956	     -3.45030884	      3.19446513	      3.17104837	    -18.39132760	      0.00000000	      4.45224792	     -5.50516598	      2.98957504	      2.13731452	      2.99301958	     -7.51010971	      0.00000000	     -8.81212613	      0.73456717	     -0.71516158	      7.71155225	     -4.76832234	     33.96541160	     97.13551081	     95.03973687	      5.11559080	     -1.29033622	     24.44827346	     88.90094284	     96.28276973
      0.31666670	     -4.58255128	     -0.00778812	     -3.90996242	      1.67490408	      0.87136725	      0.00083952	      5.09008226	     -3.36248974	     -3.44657185	      3.20803156	      3.08328272	    -18.38760737	      0.00000000	      4.19282183	     -5.45001073	      2.93160198	      2.04939929	      2.97065197	     -7.59209328	      0.00000000	     -8.72360544	      0.75196838	     -0.76077631	      7.13218759	     -5.24124411	     33.98480848	     97.05676746	     94.97661908	      4.57463579	     -1.54689983	     24.34625634	     88.55208769	     96.19392185
